<svg id="SvgjsSvg1001" width="288" height="288" xmlns="http://www.w3.org/2000/svg" version="1.1" xmlns:xlink="http://www.w3.org/1999/xlink" xmlns:svgjs="http://svgjs.com/svgjs"><circle id="SvgjsCircle1012" r="144" cx="144" cy="144" fill="#e86f58" transform="matrix(0.9167,0,0,0.9167,11.995200000000011,11.995200000000011)"></circle><defs id="SvgjsDefs1002"></defs><g id="SvgjsG1008" transform="matrix(0.6,0,0,0.6,57.60000000000001,57.60000000000001)"><svg xmlns="http://www.w3.org/2000/svg" width="288" height="288" viewBox="0 0 32 32"><path d="M 16,30 C 8.2799,30 2,23.72015 2,16 2,8.27987 8.2799,2 16,2 c 7.7202,0 14,6.27987 14,14 0,7.72015 -6.2798,14 -14,14 z m 0,-2 C 22.6393,28 28,22.63926 28,16 28,9.36075 22.6393,4 16,4 9.3608,4 4,9.36075 4,16 4,22.63926 9.3608,28 16,28 Z" color="#000" font-family="sans-serif" font-weight="400" overflow="visible" style="line-height:normal;font-variant-ligatures:normal;font-variant-position:normal;font-variant-caps:normal;font-variant-numeric:normal;font-variant-alternates:normal;font-feature-settings:normal;text-indent:0;text-align:start;text-decoration-line:none;text-decoration-style:solid;text-decoration-color:#000;text-transform:none;text-orientation:mixed;shape-padding:0;isolation:auto;mix-blend-mode:normal" fill="#ffffff" class="color000 svgShape"></path><path d="M 15.9864,21 A 1.0001,1.0001 0 0 1 15.293,20.70703 l -7,-7 A 1.0001,1.0001 0 1 1 9.7071,12.29297 L 16,18.58594 22.293,12.29297 a 1.0001,1.0001 0 1 1 1.4141,1.41406 l -7,7 A 1.0001,1.0001 0 0 1 15.9864,21 Z" color="#000" font-family="sans-serif" font-weight="400" overflow="visible" style="line-height:normal;font-variant-ligatures:normal;font-variant-position:normal;font-variant-caps:normal;font-variant-numeric:normal;font-variant-alternates:normal;font-feature-settings:normal;text-indent:0;text-align:start;text-decoration-line:none;text-decoration-style:solid;text-decoration-color:#000;text-transform:none;text-orientation:mixed;shape-padding:0;isolation:auto;mix-blend-mode:normal" fill="#ffffff" class="color000 svgShape"></path></svg></g></svg>
