<svg id="SvgjsSvg1036" width="288" height="288" xmlns="http://www.w3.org/2000/svg" version="1.1" xmlns:xlink="http://www.w3.org/1999/xlink" xmlns:svgjs="http://svgjs.com/svgjs"><circle id="SvgjsCircle1044" r="144" cx="144" cy="144" fill="#e86f58" transform="matrix(0.9167,0,0,0.9167,11.995200000000011,11.995200000000011)"></circle><defs id="SvgjsDefs1037"></defs><g id="SvgjsG1038" transform="matrix(0.92,0,0,0.92,11.519999999999982,11.519999999999982)"><svg xmlns="http://www.w3.org/2000/svg" viewBox="0 0 24 24" width="288" height="288"><path d="M12,22A10,10,0,1,1,22,12,10,10,0,0,1,12,22ZM12,4a8,8,0,1,0,8,8A8,8,0,0,0,12,4Z" fill="#ffffff" class="color000 svgShape"></path><path d="M12,18a1,1,0,0,1-.71-.29l-4-4a1,1,0,0,1,1.41-1.41L12,15.59l3.29-3.29a1,1,0,0,1,1.41,1.41l-4,4A1,1,0,0,1,12,18Z" fill="#ffffff" class="color000 svgShape"></path><path d="M12,18a1,1,0,0,1-1-1V7a1,1,0,0,1,2,0V17A1,1,0,0,1,12,18Z" fill="#ffffff" class="color000 svgShape"></path></svg></g></svg>