<svg width="236" height="88" viewBox="0 0 236 88" fill="none" xmlns="http://www.w3.org/2000/svg">
<path d="M15.72 21.192C17.832 21.192 19.352 20.688 20.28 19.68C21.208 18.672 21.672 17.264 21.672 15.456C21.672 14.656 21.552 13.928 21.312 13.272C21.072 12.616 20.704 12.056 20.208 11.592C19.728 11.112 19.112 10.744 18.36 10.488C17.624 10.232 16.744 10.104 15.72 10.104H11.496V21.192H15.72ZM15.72 4.032C18.184 4.032 20.296 4.328 22.056 4.92C23.832 5.496 25.288 6.296 26.424 7.32C27.576 8.344 28.424 9.552 28.968 10.944C29.512 12.336 29.784 13.84 29.784 15.456C29.784 17.2 29.504 18.8 28.944 20.256C28.384 21.712 27.528 22.96 26.376 24C25.224 25.04 23.76 25.856 21.984 26.448C20.224 27.024 18.136 27.312 15.72 27.312H11.496V39H3.384V4.032H15.72ZM40.4756 16.296C41.3716 15.528 42.3396 14.912 43.3796 14.448C44.4356 13.968 45.6916 13.728 47.1476 13.728C48.5076 13.728 49.7076 13.968 50.7476 14.448C51.8036 14.912 52.6916 15.568 53.4116 16.416C54.1316 17.248 54.6756 18.248 55.0436 19.416C55.4116 20.568 55.5956 21.824 55.5956 23.184V39H48.1556V23.184C48.1556 21.968 47.8756 21.024 47.3156 20.352C46.7556 19.664 45.9316 19.32 44.8436 19.32C44.0276 19.32 43.2596 19.496 42.5396 19.848C41.8356 20.184 41.1476 20.648 40.4756 21.24V39H33.0356V3.072H40.4756V16.296ZM71.8826 13.728C73.7706 13.728 75.4906 14.024 77.0426 14.616C78.5946 15.208 79.9226 16.056 81.0266 17.16C82.1466 18.264 83.0106 19.608 83.6186 21.192C84.2426 22.76 84.5546 24.528 84.5546 26.496C84.5546 28.48 84.2426 30.272 83.6186 31.872C83.0106 33.456 82.1466 34.808 81.0266 35.928C79.9226 37.032 78.5946 37.888 77.0426 38.496C75.4906 39.088 73.7706 39.384 71.8826 39.384C69.9786 39.384 68.2426 39.088 66.6746 38.496C65.1226 37.888 63.7786 37.032 62.6426 35.928C61.5226 34.808 60.6506 33.456 60.0266 31.872C59.4186 30.272 59.1146 28.48 59.1146 26.496C59.1146 24.528 59.4186 22.76 60.0266 21.192C60.6506 19.608 61.5226 18.264 62.6426 17.16C63.7786 16.056 65.1226 15.208 66.6746 14.616C68.2426 14.024 69.9786 13.728 71.8826 13.728ZM71.8826 33.864C73.5946 33.864 74.8506 33.264 75.6506 32.064C76.4666 30.848 76.8746 29.008 76.8746 26.544C76.8746 24.08 76.4666 22.248 75.6506 21.048C74.8506 19.848 73.5946 19.248 71.8826 19.248C70.1226 19.248 68.8346 19.848 68.0186 21.048C67.2026 22.248 66.7946 24.08 66.7946 26.544C66.7946 29.008 67.2026 30.848 68.0186 32.064C68.8346 33.264 70.1226 33.864 71.8826 33.864ZM96.6896 39.384C95.5056 39.384 94.4576 39.216 93.5456 38.88C92.6496 38.528 91.8896 38.04 91.2656 37.416C90.6576 36.776 90.1936 36.008 89.8736 35.112C89.5536 34.216 89.3936 33.216 89.3936 32.112V19.248H87.2816C86.8976 19.248 86.5696 19.128 86.2976 18.888C86.0256 18.632 85.8896 18.264 85.8896 17.784V14.88L89.8496 14.112L91.3136 8.04C91.5056 7.272 92.0496 6.888 92.9456 6.888H96.8336V14.16H103.002V19.248H96.8336V31.608C96.8336 32.184 96.9696 32.664 97.2416 33.048C97.5296 33.416 97.9376 33.6 98.4656 33.6C98.7376 33.6 98.9616 33.576 99.1376 33.528C99.3296 33.464 99.4896 33.4 99.6176 33.336C99.7616 33.256 99.8896 33.192 100.002 33.144C100.13 33.08 100.274 33.048 100.434 33.048C100.658 33.048 100.834 33.104 100.962 33.216C101.106 33.312 101.25 33.472 101.394 33.696L103.65 37.224C102.69 37.944 101.61 38.488 100.41 38.856C99.2096 39.208 97.9696 39.384 96.6896 39.384ZM117.445 13.728C119.333 13.728 121.053 14.024 122.605 14.616C124.157 15.208 125.485 16.056 126.589 17.16C127.709 18.264 128.573 19.608 129.181 21.192C129.805 22.76 130.117 24.528 130.117 26.496C130.117 28.48 129.805 30.272 129.181 31.872C128.573 33.456 127.709 34.808 126.589 35.928C125.485 37.032 124.157 37.888 122.605 38.496C121.053 39.088 119.333 39.384 117.445 39.384C115.541 39.384 113.805 39.088 112.237 38.496C110.685 37.888 109.341 37.032 108.205 35.928C107.085 34.808 106.213 33.456 105.589 31.872C104.981 30.272 104.677 28.48 104.677 26.496C104.677 24.528 104.981 22.76 105.589 21.192C106.213 19.608 107.085 18.264 108.205 17.16C109.341 16.056 110.685 15.208 112.237 14.616C113.805 14.024 115.541 13.728 117.445 13.728ZM117.445 33.864C119.157 33.864 120.413 33.264 121.213 32.064C122.029 30.848 122.437 29.008 122.437 26.544C122.437 24.08 122.029 22.248 121.213 21.048C120.413 19.848 119.157 19.248 117.445 19.248C115.685 19.248 114.397 19.848 113.581 21.048C112.765 22.248 112.357 24.08 112.357 26.544C112.357 29.008 112.765 30.848 113.581 32.064C114.397 33.264 115.685 33.864 117.445 33.864Z" fill="#555C5C"/>
<path d="M11.544 51.272V59.432H22.536V65.432H11.544V73.76H25.896V80H3.384V45.032H25.896V51.272H11.544ZM53.8436 80H46.6916C46.1636 80 45.7316 79.872 45.3956 79.616C45.0756 79.36 44.8196 79.056 44.6276 78.704L40.1876 71.072C40.1076 71.344 40.0116 71.6 39.8996 71.84C39.7876 72.08 39.6676 72.304 39.5396 72.512L35.8916 78.704C35.6676 79.024 35.4036 79.32 35.0996 79.592C34.7956 79.864 34.4036 80 33.9236 80H27.2996L35.6516 67.136L27.6356 55.112H34.7876C35.3156 55.112 35.6996 55.184 35.9396 55.328C36.1956 55.456 36.4196 55.68 36.6116 56L41.0516 63.368C41.1476 63.08 41.2676 62.8 41.4116 62.528C41.5556 62.24 41.7156 61.952 41.8916 61.664L45.0596 56.12C45.2836 55.768 45.5156 55.512 45.7556 55.352C46.0116 55.192 46.3236 55.112 46.6916 55.112H53.5076L45.4916 66.8L53.8436 80ZM63.585 73.232C64.145 73.84 64.753 74.272 65.409 74.528C66.065 74.784 66.753 74.912 67.473 74.912C68.161 74.912 68.793 74.776 69.369 74.504C69.945 74.232 70.441 73.8 70.857 73.208C71.289 72.6 71.625 71.816 71.865 70.856C72.105 69.896 72.225 68.728 72.225 67.352C72.225 66.04 72.129 64.936 71.937 64.04C71.745 63.144 71.473 62.424 71.121 61.88C70.785 61.32 70.377 60.92 69.897 60.68C69.417 60.44 68.881 60.32 68.289 60.32C67.201 60.32 66.305 60.52 65.601 60.92C64.897 61.32 64.225 61.904 63.585 62.672V73.232ZM63.129 58.184C64.105 57.144 65.209 56.296 66.441 55.64C67.689 54.968 69.169 54.632 70.881 54.632C72.177 54.632 73.377 54.92 74.481 55.496C75.585 56.072 76.537 56.904 77.337 57.992C78.137 59.08 78.761 60.416 79.209 62C79.673 63.568 79.905 65.352 79.905 67.352C79.905 69.224 79.641 70.952 79.113 72.536C78.601 74.12 77.873 75.496 76.929 76.664C76.001 77.832 74.881 78.744 73.569 79.4C72.273 80.056 70.833 80.384 69.249 80.384C67.953 80.384 66.865 80.2 65.985 79.832C65.105 79.464 64.305 78.968 63.585 78.344V87.896H56.145V55.112H60.753C61.681 55.112 62.289 55.528 62.577 56.36L63.129 58.184ZM90.7144 58.952C91.4824 57.608 92.3624 56.552 93.3544 55.784C94.3624 55.016 95.5144 54.632 96.8104 54.632C97.9304 54.632 98.8424 54.896 99.5464 55.424L99.0664 60.896C98.9864 61.248 98.8504 61.488 98.6584 61.616C98.4824 61.744 98.2344 61.808 97.9144 61.808C97.7864 61.808 97.6184 61.8 97.4104 61.784C97.2024 61.768 96.9864 61.752 96.7624 61.736C96.5384 61.704 96.3064 61.68 96.0664 61.664C95.8424 61.632 95.6344 61.616 95.4424 61.616C94.3544 61.616 93.4824 61.904 92.8264 62.48C92.1864 63.056 91.6424 63.856 91.1944 64.88V80H83.7544V55.112H88.1704C88.5384 55.112 88.8424 55.144 89.0824 55.208C89.3384 55.272 89.5464 55.376 89.7064 55.52C89.8824 55.648 90.0104 55.824 90.0904 56.048C90.1864 56.272 90.2664 56.544 90.3304 56.864L90.7144 58.952ZM117.141 64.568C117.141 63.976 117.061 63.4 116.901 62.84C116.757 62.28 116.509 61.784 116.157 61.352C115.821 60.904 115.373 60.544 114.813 60.272C114.253 60 113.573 59.864 112.773 59.864C111.365 59.864 110.261 60.272 109.461 61.088C108.661 61.888 108.133 63.048 107.877 64.568H117.141ZM107.781 68.888C108.021 70.968 108.653 72.48 109.677 73.424C110.701 74.352 112.021 74.816 113.637 74.816C114.501 74.816 115.245 74.712 115.869 74.504C116.493 74.296 117.045 74.064 117.525 73.808C118.021 73.552 118.469 73.32 118.869 73.112C119.285 72.904 119.717 72.8 120.165 72.8C120.757 72.8 121.205 73.016 121.509 73.448L123.669 76.112C122.901 76.992 122.069 77.712 121.173 78.272C120.293 78.816 119.381 79.248 118.437 79.568C117.509 79.872 116.573 80.08 115.629 80.192C114.701 80.32 113.813 80.384 112.965 80.384C111.221 80.384 109.581 80.104 108.045 79.544C106.525 78.968 105.189 78.12 104.037 77C102.901 75.88 101.997 74.488 101.325 72.824C100.669 71.16 100.341 69.224 100.341 67.016C100.341 65.352 100.621 63.776 101.181 62.288C101.757 60.8 102.573 59.496 103.629 58.376C104.701 57.256 105.989 56.368 107.493 55.712C109.013 55.056 110.725 54.728 112.629 54.728C114.277 54.728 115.781 54.984 117.141 55.496C118.517 56.008 119.693 56.752 120.669 57.728C121.661 58.704 122.429 59.904 122.973 61.328C123.533 62.736 123.813 64.336 123.813 66.128C123.813 66.688 123.789 67.144 123.741 67.496C123.693 67.848 123.605 68.128 123.477 68.336C123.349 68.544 123.173 68.688 122.949 68.768C122.741 68.848 122.469 68.888 122.133 68.888H107.781ZM143.352 60.56C143.16 60.864 142.952 61.08 142.728 61.208C142.52 61.336 142.248 61.4 141.912 61.4C141.56 61.4 141.208 61.328 140.856 61.184C140.504 61.024 140.12 60.856 139.704 60.68C139.304 60.504 138.848 60.344 138.336 60.2C137.824 60.04 137.24 59.96 136.584 59.96C135.64 59.96 134.912 60.144 134.4 60.512C133.904 60.864 133.656 61.36 133.656 62C133.656 62.464 133.816 62.848 134.136 63.152C134.472 63.456 134.912 63.728 135.456 63.968C136 64.192 136.616 64.408 137.304 64.616C137.992 64.824 138.696 65.056 139.416 65.312C140.136 65.568 140.84 65.872 141.528 66.224C142.216 66.56 142.832 66.984 143.376 67.496C143.92 67.992 144.352 68.6 144.672 69.32C145.008 70.04 145.176 70.904 145.176 71.912C145.176 73.144 144.952 74.28 144.504 75.32C144.056 76.36 143.384 77.256 142.488 78.008C141.608 78.76 140.512 79.344 139.2 79.76C137.904 80.176 136.408 80.384 134.712 80.384C133.864 80.384 133.016 80.304 132.168 80.144C131.32 79.984 130.496 79.768 129.696 79.496C128.912 79.224 128.184 78.904 127.512 78.536C126.84 78.152 126.264 77.744 125.784 77.312L127.512 74.576C127.704 74.256 127.944 74.008 128.232 73.832C128.536 73.64 128.92 73.544 129.384 73.544C129.816 73.544 130.2 73.64 130.536 73.832C130.888 74.024 131.264 74.232 131.664 74.456C132.064 74.68 132.528 74.888 133.056 75.08C133.6 75.272 134.28 75.368 135.096 75.368C135.672 75.368 136.16 75.312 136.56 75.2C136.96 75.072 137.28 74.904 137.52 74.696C137.76 74.488 137.936 74.256 138.048 74C138.16 73.744 138.216 73.48 138.216 73.208C138.216 72.712 138.048 72.304 137.712 71.984C137.376 71.664 136.936 71.392 136.392 71.168C135.848 70.928 135.224 70.712 134.52 70.52C133.832 70.312 133.128 70.08 132.408 69.824C131.688 69.568 130.976 69.264 130.272 68.912C129.584 68.544 128.968 68.088 128.424 67.544C127.88 66.984 127.44 66.304 127.104 65.504C126.768 64.704 126.6 63.736 126.6 62.6C126.6 61.544 126.8 60.544 127.2 59.6C127.616 58.64 128.232 57.8 129.048 57.08C129.864 56.36 130.888 55.792 132.12 55.376C133.352 54.944 134.792 54.728 136.44 54.728C137.336 54.728 138.2 54.808 139.032 54.968C139.88 55.128 140.672 55.352 141.408 55.64C142.144 55.928 142.816 56.272 143.424 56.672C144.032 57.056 144.568 57.48 145.032 57.944L143.352 60.56ZM164.727 60.56C164.535 60.864 164.327 61.08 164.103 61.208C163.895 61.336 163.623 61.4 163.287 61.4C162.935 61.4 162.583 61.328 162.231 61.184C161.879 61.024 161.495 60.856 161.079 60.68C160.679 60.504 160.223 60.344 159.711 60.2C159.199 60.04 158.615 59.96 157.959 59.96C157.015 59.96 156.287 60.144 155.775 60.512C155.279 60.864 155.031 61.36 155.031 62C155.031 62.464 155.191 62.848 155.511 63.152C155.847 63.456 156.287 63.728 156.831 63.968C157.375 64.192 157.991 64.408 158.679 64.616C159.367 64.824 160.071 65.056 160.791 65.312C161.511 65.568 162.215 65.872 162.903 66.224C163.591 66.56 164.207 66.984 164.751 67.496C165.295 67.992 165.727 68.6 166.047 69.32C166.383 70.04 166.551 70.904 166.551 71.912C166.551 73.144 166.327 74.28 165.879 75.32C165.431 76.36 164.759 77.256 163.863 78.008C162.983 78.76 161.887 79.344 160.575 79.76C159.279 80.176 157.783 80.384 156.087 80.384C155.239 80.384 154.391 80.304 153.543 80.144C152.695 79.984 151.871 79.768 151.071 79.496C150.287 79.224 149.559 78.904 148.887 78.536C148.215 78.152 147.639 77.744 147.159 77.312L148.887 74.576C149.079 74.256 149.319 74.008 149.607 73.832C149.911 73.64 150.295 73.544 150.759 73.544C151.191 73.544 151.575 73.64 151.911 73.832C152.263 74.024 152.639 74.232 153.039 74.456C153.439 74.68 153.903 74.888 154.431 75.08C154.975 75.272 155.655 75.368 156.471 75.368C157.047 75.368 157.535 75.312 157.935 75.2C158.335 75.072 158.655 74.904 158.895 74.696C159.135 74.488 159.311 74.256 159.423 74C159.535 73.744 159.591 73.48 159.591 73.208C159.591 72.712 159.423 72.304 159.087 71.984C158.751 71.664 158.311 71.392 157.767 71.168C157.223 70.928 156.599 70.712 155.895 70.52C155.207 70.312 154.503 70.08 153.783 69.824C153.063 69.568 152.351 69.264 151.647 68.912C150.959 68.544 150.343 68.088 149.799 67.544C149.255 66.984 148.815 66.304 148.479 65.504C148.143 64.704 147.975 63.736 147.975 62.6C147.975 61.544 148.175 60.544 148.575 59.6C148.991 58.64 149.607 57.8 150.423 57.08C151.239 56.36 152.263 55.792 153.495 55.376C154.727 54.944 156.167 54.728 157.815 54.728C158.711 54.728 159.575 54.808 160.407 54.968C161.255 55.128 162.047 55.352 162.783 55.64C163.519 55.928 164.191 56.272 164.799 56.672C165.407 57.056 165.943 57.48 166.407 57.944L164.727 60.56ZM177.894 55.112V80H170.454V55.112H177.894ZM178.662 48.296C178.662 48.888 178.542 49.448 178.302 49.976C178.062 50.488 177.734 50.944 177.318 51.344C176.902 51.728 176.414 52.04 175.854 52.28C175.31 52.504 174.726 52.616 174.102 52.616C173.494 52.616 172.926 52.504 172.398 52.28C171.87 52.04 171.398 51.728 170.982 51.344C170.582 50.944 170.262 50.488 170.022 49.976C169.798 49.448 169.686 48.888 169.686 48.296C169.686 47.688 169.798 47.12 170.022 46.592C170.262 46.064 170.582 45.6 170.982 45.2C171.398 44.8 171.87 44.488 172.398 44.264C172.926 44.04 173.494 43.928 174.102 43.928C174.726 43.928 175.31 44.04 175.854 44.264C176.414 44.488 176.902 44.8 177.318 45.2C177.734 45.6 178.062 46.064 178.302 46.592C178.542 47.12 178.662 47.688 178.662 48.296ZM194.555 54.728C196.443 54.728 198.163 55.024 199.715 55.616C201.267 56.208 202.595 57.056 203.699 58.16C204.819 59.264 205.683 60.608 206.291 62.192C206.915 63.76 207.227 65.528 207.227 67.496C207.227 69.48 206.915 71.272 206.291 72.872C205.683 74.456 204.819 75.808 203.699 76.928C202.595 78.032 201.267 78.888 199.715 79.496C198.163 80.088 196.443 80.384 194.555 80.384C192.651 80.384 190.915 80.088 189.347 79.496C187.795 78.888 186.451 78.032 185.315 76.928C184.195 75.808 183.323 74.456 182.699 72.872C182.091 71.272 181.787 69.48 181.787 67.496C181.787 65.528 182.091 63.76 182.699 62.192C183.323 60.608 184.195 59.264 185.315 58.16C186.451 57.056 187.795 56.208 189.347 55.616C190.915 55.024 192.651 54.728 194.555 54.728ZM194.555 74.864C196.267 74.864 197.523 74.264 198.323 73.064C199.139 71.848 199.547 70.008 199.547 67.544C199.547 65.08 199.139 63.248 198.323 62.048C197.523 60.848 196.267 60.248 194.555 60.248C192.795 60.248 191.507 60.848 190.691 62.048C189.875 63.248 189.467 65.08 189.467 67.544C189.467 70.008 189.875 71.848 190.691 73.064C191.507 74.264 192.795 74.864 194.555 74.864ZM217.837 57.8C218.317 57.352 218.813 56.936 219.325 56.552C219.837 56.168 220.381 55.848 220.957 55.592C221.549 55.32 222.181 55.112 222.853 54.968C223.541 54.808 224.285 54.728 225.085 54.728C226.445 54.728 227.645 54.968 228.685 55.448C229.741 55.912 230.629 56.568 231.349 57.416C232.069 58.248 232.613 59.248 232.981 60.416C233.349 61.568 233.533 62.824 233.533 64.184V80H226.093V64.184C226.093 62.968 225.813 62.024 225.253 61.352C224.693 60.664 223.869 60.32 222.781 60.32C221.965 60.32 221.197 60.496 220.477 60.848C219.773 61.184 219.085 61.648 218.413 62.24V80H210.973V55.112H215.581C216.509 55.112 217.117 55.528 217.405 56.36L217.837 57.8Z" fill="#E75B56"/>
</svg>
